<svg xmlns="http://www.w3.org/2000/svg" width="114" height="22" viewBox="0 0 114 22">
    <defs>
        <clipPath id="prefix__clip-path">
            <path id="prefix__border" d="M0 0H114V22H0z" transform="translate(113 93)" style="opacity:0;fill:#fff"/>
        </clipPath>
    </defs>
    <g id="prefix__ATZMA_IM" transform="translate(-113 -93)">
        <path id="prefix__logo" d="M-42.282 0l-1.962-3.294h-6.192l1.08-1.854h4.014l-2.916-4.9L-54.2 0h-2.61l7.524-12.528a1.732 1.732 0 0 1 .468-.54 1.066 1.066 0 0 1 .648-.2 1.026 1.026 0 0 1 .639.2 1.791 1.791 0 0 1 .459.54L-39.528 0zm6.57 0v-10.8h-4.968v-2.286h12.222v2.286h-4.968V0zm10.188 0a1.45 1.45 0 0 1-.909-.3 1.033 1.033 0 0 1-.387-.873 1.378 1.378 0 0 1 .468-.972l8.694-8.766h-9v-2.178h11.448a1.461 1.461 0 0 1 .9.3 1.023 1.023 0 0 1 .4.873 1.378 1.378 0 0 1-.468.972l-8.694 8.766h9.108V0zM4.86 0l-2.5-9.2-3.71 8.516a1.8 1.8 0 0 1-.477.639A1.068 1.068 0 0 1-2.52.18a1.217 1.217 0 0 1-1.17-.864L-7.38-9.2-9.882 0h-2.25l3.366-12.312a1.086 1.086 0 0 1 1.134-.936 1.246 1.246 0 0 1 .675.2 1.23 1.23 0 0 1 .477.576l4.032 9.252 4.032-9.252a1.123 1.123 0 0 1 1.1-.774 1.1 1.1 0 0 1 1.1.936L7.128 0zm17.964 0l-1.962-3.294H14.67l1.08-1.854h4.014l-2.916-4.9L10.908 0H8.3l7.524-12.528a1.732 1.732 0 0 1 .468-.54 1.066 1.066 0 0 1 .648-.2 1.026 1.026 0 0 1 .639.2 1.791 1.791 0 0 1 .459.54L25.578 0zm7.146-1.08a1.17 1.17 0 0 1-.36.873 1.215 1.215 0 0 1-.882.351 1.155 1.155 0 0 1-.864-.351 1.2 1.2 0 0 1-.342-.873 1.2 1.2 0 0 1 .342-.873 1.155 1.155 0 0 1 .864-.351 1.215 1.215 0 0 1 .882.351 1.17 1.17 0 0 1 .36.873zM32.9 0v-13.086h2.29V0zm21.51 0l-2.5-9.2L48.2-.684a1.8 1.8 0 0 1-.477.639 1.068 1.068 0 0 1-.693.225 1.217 1.217 0 0 1-1.17-.864L42.174-9.2 39.672 0h-2.25l3.366-12.312a1.086 1.086 0 0 1 1.134-.936 1.246 1.246 0 0 1 .675.2 1.23 1.23 0 0 1 .477.576l4.032 9.252 4.032-9.252a1.123 1.123 0 0 1 1.1-.774 1.1 1.1 0 0 1 1.1.936L56.682 0z" transform="translate(170 111)" style="fill:#fff"/>
    </g>
</svg>
