<svg xmlns="http://www.w3.org/2000/svg" width="17" height="14" fill="none" viewBox="0 0 17 14">
    <path fill="#4F2DA7" d="M8.996 8.536a1.959 1.959 0 0 0-1.556-.813 1.494 1.494 0 0 1-1.49-1.306c.221-.16.425-.36.606-.602a3.76 3.76 0 0 0 .691-1.758.347.347 0 0 0 .066-.1c.155-.364.234-.752.234-1.154C7.547 1.257 6.36 0 4.904 0c-.376 0-.742.084-1.088.25a1.97 1.97 0 0 0-.377.07C2.221.665 1.532 2.117 1.904 3.555c.038.144.085.287.142.422.015.038.037.07.062.099.14 1.015.628 1.86 1.295 2.338a1.494 1.494 0 0 1-1.525 1.31C.836 7.762 0 8.608 0 9.643v2.067c0 .193.159.35.354.35h6.257a.352.352 0 0 0 .354-.35.352.352 0 0 0-.354-.35H.708V9.644A1.232 1.232 0 0 1 1.983 8.42c.255-.008.5-.059.726-.145l1.676 2.385a.356.356 0 0 0 .582 0l1.677-2.385a2.221 2.221 0 0 0 .76.147c.403 0 .782.193 1.014.517a.355.355 0 0 0 .494.084.346.346 0 0 0 .084-.487zM3.636.99c.092-.027.19-.042.292-.047a.358.358 0 0 0 .148-.04c.264-.136.542-.205.828-.205 1.045 0 1.899.907 1.933 2.035a1.276 1.276 0 0 0-.765-.253H4.22a.424.424 0 0 1-.394-.262.415.415 0 0 0-.41-.256.414.414 0 0 0-.377.307c-.09.342-.26.66-.488.93-.184-1.011.278-1.98 1.084-2.21zm-.831 2.956c.31-.28.56-.618.734-.992.002 0 .003.002.004.003.197.144.43.22.677.22h1.852c.222 0 .415.13.506.314-.003.725-.212 1.403-.591 1.909-.358.477-.823.74-1.31.74-.452 0-.89-.23-1.237-.647-.336-.404-.558-.949-.635-1.547zM4.676 9.85L3.321 7.92c.364-.297.629-.707.74-1.175a2.079 2.079 0 0 0 1.23.001c.112.467.377.877.74 1.174L4.677 9.85z"/>
    <path fill="#4F2DA7" d="M15.122 9.666a1.494 1.494 0 0 1-1.525-1.312c.434-.311.792-.778 1.027-1.346a.352.352 0 0 0 .339.248.356.356 0 0 0 .28-.135c.493-.626.75-1.44.723-2.293-.028-.836-.326-1.622-.84-2.211-.527-.603-1.223-.94-1.96-.946a2.584 2.584 0 0 0-.152.002 2.686 2.686 0 0 0-1.19-.235c-.851.027-1.634.445-2.204 1.177-.554.712-.842 1.64-.81 2.614.005.165.018.317.04.461.057.415.173.813.344 1.181a.356.356 0 0 0 .624.037c.029-.045.065-.103.106-.159.158.473.399.898.706 1.233.13.143.271.268.42.374a1.494 1.494 0 0 1-1.525 1.31c-1.041.036-1.878.883-1.878 1.918v2.067c0 .193.159.349.355.349h8.644a.352.352 0 0 0 .354-.35v-2.066c0-1.035-.836-1.881-1.878-1.918zm-5.49-3.66a3.642 3.642 0 0 1-.115-.8c-.026-.813.21-1.582.665-2.166.438-.563 1.03-.884 1.664-.904.021 0 .478-.026.944.205a.365.365 0 0 0 .17.037l.194-.01c.532.004 1.041.254 1.435.705.409.468.647 1.1.669 1.778a3 3 0 0 1-.152 1.055 3.26 3.26 0 0 0-.112-.26 3.14 3.14 0 0 0-1.62-1.564.359.359 0 0 0-.279.002.35.35 0 0 0-.191.199 2.576 2.576 0 0 1-.17.363c-.185.327-.56.522-.975.507a2.899 2.899 0 0 0-1.077.172c-.28.104-.753.366-1.05.68zm.872.19c.134-.089.277-.162.427-.218a2.115 2.115 0 0 1 .804-.127c.684.023 1.302-.308 1.617-.864.02-.034.038-.069.057-.104.323.196.599.473.806.808a.323.323 0 0 0-.004.032c-.054.662-.286 1.27-.652 1.711-.347.417-.786.647-1.237.647-.833 0-1.575-.781-1.818-1.885zm1.205 2.49a2.078 2.078 0 0 0 1.23 0 2.187 2.187 0 0 0 1.056 1.39 1.734 1.734 0 0 1-1.671 1.252 1.734 1.734 0 0 1-1.671-1.252 2.188 2.188 0 0 0 1.056-1.39zm4.583 4.616H8.356v-1.718a1.232 1.232 0 0 1 1.274-1.223 2.24 2.24 0 0 0 .358-.04 2.443 2.443 0 0 0 2.336 1.706c1.087 0 2.028-.71 2.336-1.706a2.238 2.238 0 0 0 .392.042c.684 0 1.24.548 1.24 1.221v1.718z"/>
</svg>
