<svg xmlns="http://www.w3.org/2000/svg" width="16" height="16" fill="none" viewBox="0 0 14 14">
    <path fill="#4F2DA7" fill-rule="evenodd" d="M2.665 3.49L.17.996A.583.583 0 0 1 .996.17L3.94 3.116a.618.618 0 0 1 .012.012l2.22 2.22a.888.888 0 0 1 .005.005l2.47 2.47a.561.561 0 0 1 .004.004l2.219 2.219a.748.748 0 0 1 .012.012l2.946 2.946a.583.583 0 1 1-.825.825L10.4 11.223A6.468 6.468 0 0 1 7 12.25c-1.972 0-3.698-.952-5.165-2.518A11.954 11.954 0 0 1 .522 8.046a8.858 8.858 0 0 1-.46-.785.583.583 0 0 1 .007-.537c.66-1.23 1.54-2.326 2.596-3.234zm.827.827A10.18 10.18 0 0 0 1.25 7.002a10.8 10.8 0 0 0 1.436 1.933c1.267 1.35 2.713 2.148 4.304 2.148a5.291 5.291 0 0 0 2.56-.708L8.196 9.02a2.333 2.333 0 0 1-3.217-3.217L3.492 4.317zM5.85 6.675A1.166 1.166 0 0 0 7.325 8.15L5.85 6.675zm5.931 2.632a.583.583 0 0 1-.07-.822c.39-.464.738-.961 1.04-1.486a10.796 10.796 0 0 0-1.437-1.933c-1.267-1.352-2.713-2.15-4.315-2.15-.368 0-.734.042-1.091.125a.583.583 0 1 1-.266-1.136A5.9 5.9 0 0 1 7 1.75c1.972 0 3.698.952 5.165 2.518.504.538.942 1.112 1.313 1.686.225.348.378.621.46.785a.583.583 0 0 1-.007.536 11.37 11.37 0 0 1-1.328 1.961.583.583 0 0 1-.822.071z" clip-rule="evenodd"/>
    <mask id="a" width="14" height="14" x="0" y="0" maskUnits="userSpaceOnUse">
        <path fill="#fff" fill-rule="evenodd" d="M2.665 3.49L.17.996A.583.583 0 0 1 .996.17L3.94 3.116a.618.618 0 0 1 .012.012l2.22 2.22a.888.888 0 0 1 .005.005l2.47 2.47a.561.561 0 0 1 .004.004l2.219 2.219a.748.748 0 0 1 .012.012l2.946 2.946a.583.583 0 1 1-.825.825L10.4 11.223A6.468 6.468 0 0 1 7 12.25c-1.972 0-3.698-.952-5.165-2.518A11.954 11.954 0 0 1 .522 8.046a8.858 8.858 0 0 1-.46-.785.583.583 0 0 1 .007-.537c.66-1.23 1.54-2.326 2.596-3.234zm.827.827A10.18 10.18 0 0 0 1.25 7.002a10.8 10.8 0 0 0 1.436 1.933c1.267 1.35 2.713 2.148 4.304 2.148a5.291 5.291 0 0 0 2.56-.708L8.196 9.02a2.333 2.333 0 0 1-3.217-3.217L3.492 4.317zM5.85 6.675A1.166 1.166 0 0 0 7.325 8.15L5.85 6.675zm5.931 2.632a.583.583 0 0 1-.07-.822c.39-.464.738-.961 1.04-1.486a10.796 10.796 0 0 0-1.437-1.933c-1.267-1.352-2.713-2.15-4.315-2.15-.368 0-.734.042-1.091.125a.583.583 0 1 1-.266-1.136A5.9 5.9 0 0 1 7 1.75c1.972 0 3.698.952 5.165 2.518.504.538.942 1.112 1.313 1.686.225.348.378.621.46.785a.583.583 0 0 1-.007.536 11.37 11.37 0 0 1-1.328 1.961.583.583 0 0 1-.822.071z" clip-rule="evenodd"/>
    </mask>
    <g mask="url(#a)">
        <path fill="#4F2DA7" d="M0 0h14v14H0z"/>
    </g>
</svg>
