<svg xmlns="http://www.w3.org/2000/svg" width="16" height="16" fill="none" viewBox="0 0 14 14">
    <path fill="#4F2DA7" fill-rule="evenodd" d="M.522 5.954c-.225.348-.378.621-.46.785a.583.583 0 0 0 0 .522c.082.164.235.437.46.785.37.574.809 1.148 1.313 1.686C3.302 11.298 5.028 12.25 7 12.25s3.698-.952 5.165-2.518c.504-.538.942-1.112 1.313-1.686.225-.348.378-.621.46-.785a.583.583 0 0 0 0-.522 8.862 8.862 0 0 0-.46-.785 11.954 11.954 0 0 0-1.313-1.686C10.698 2.702 8.972 1.75 7 1.75s-3.698.952-5.165 2.518A11.954 11.954 0 0 0 .522 5.954zm2.164 2.98A10.8 10.8 0 0 1 1.249 7a10.8 10.8 0 0 1 1.437-1.934C3.953 3.714 5.399 2.916 7 2.916s3.047.798 4.314 2.15A10.796 10.796 0 0 1 12.751 7a10.796 10.796 0 0 1-1.437 1.934c-1.267 1.352-2.713 2.15-4.314 2.15s-3.047-.798-4.314-2.15zm4.314.4a2.333 2.333 0 1 1 0-4.667 2.333 2.333 0 0 1 0 4.666zM8.167 7a1.167 1.167 0 1 1-2.334 0 1.167 1.167 0 0 1 2.334 0z" clip-rule="evenodd"/>
    <mask id="a" width="14" height="12" x="0" y="1" maskUnits="userSpaceOnUse">
        <path fill="#fff" fill-rule="evenodd" d="M.522 5.954c-.225.348-.378.621-.46.785a.583.583 0 0 0 0 .522c.082.164.235.437.46.785.37.574.809 1.148 1.313 1.686C3.302 11.298 5.028 12.25 7 12.25s3.698-.952 5.165-2.518c.504-.538.942-1.112 1.313-1.686.225-.348.378-.621.46-.785a.583.583 0 0 0 0-.522 8.862 8.862 0 0 0-.46-.785 11.954 11.954 0 0 0-1.313-1.686C10.698 2.702 8.972 1.75 7 1.75s-3.698.952-5.165 2.518A11.954 11.954 0 0 0 .522 5.954zm2.164 2.98A10.8 10.8 0 0 1 1.249 7a10.8 10.8 0 0 1 1.437-1.934C3.953 3.714 5.399 2.916 7 2.916s3.047.798 4.314 2.15A10.796 10.796 0 0 1 12.751 7a10.796 10.796 0 0 1-1.437 1.934c-1.267 1.352-2.713 2.15-4.314 2.15s-3.047-.798-4.314-2.15zm4.314.4a2.333 2.333 0 1 1 0-4.667 2.333 2.333 0 0 1 0 4.666zM8.167 7a1.167 1.167 0 1 1-2.334 0 1.167 1.167 0 0 1 2.334 0z" clip-rule="evenodd"/>
    </mask>
    <g mask="url(#a)">
        <path fill="#4F2DA7" d="M0 0h14v14H0z"/>
    </g>
</svg>
