<svg xmlns="http://www.w3.org/2000/svg" id="prefix__ic_email" width="24" height="24" viewBox="0 0 24 24">
    <path id="prefix__border" d="M0 0H24V24H0z" style="opacity:0;fill:#ff358c"/>
    <path id="prefix__ic_email-2" d="M17.3 4H4.7A2.663 2.663 0 0 0 2 6.625v8.75A2.663 2.663 0 0 0 4.7 18h12.6a2.663 2.663 0 0 0 2.7-2.625v-8.75A2.663 2.663 0 0 0 17.3 4zm-.6 1.75L11 9.906 5.3 5.75zm.6 10.5H4.7a.888.888 0 0 1-.9-.875V6.844l6.66 4.856a.921.921 0 0 0 1.08 0l6.66-4.856v8.531a.888.888 0 0 1-.9.875z" data-name="ic_email" transform="translate(1 1)" style="fill:#ff358c"/>
</svg>
