<svg xmlns="http://www.w3.org/2000/svg" width="16" height="16" fill="none" viewBox="0 0 14 14">
    <path fill="#F14336" fill-rule="evenodd" d="M4.084 7H2.916a.583.583 0 0 0-.584.583v4.084c0 .322.261.583.584.583h8.166a.583.583 0 0 0 .584-.583V7.583A.583.583 0 0 0 11.083 7H9.917 4.084zM10.5 5.833h.583c.967 0 1.75.784 1.75 1.75v4.084a1.75 1.75 0 0 1-1.75 1.75H2.917a1.75 1.75 0 0 1-1.75-1.75V7.583c0-.966.783-1.75 1.75-1.75H3.5v-1.75a3.5 3.5 0 1 1 7 0v1.75zm-5.833 0v-1.75a2.333 2.333 0 1 1 4.666 0v1.75H4.667z" clip-rule="evenodd"/>
    <mask id="a" width="12" height="14" x="1" y="0" maskUnits="userSpaceOnUse">
        <path fill="#fff" fill-rule="evenodd" d="M4.084 7H2.916a.583.583 0 0 0-.584.583v4.084c0 .322.261.583.584.583h8.166a.583.583 0 0 0 .584-.583V7.583A.583.583 0 0 0 11.083 7H9.917 4.084zM10.5 5.833h.583c.967 0 1.75.784 1.75 1.75v4.084a1.75 1.75 0 0 1-1.75 1.75H2.917a1.75 1.75 0 0 1-1.75-1.75V7.583c0-.966.783-1.75 1.75-1.75H3.5v-1.75a3.5 3.5 0 1 1 7 0v1.75zm-5.833 0v-1.75a2.333 2.333 0 1 1 4.666 0v1.75H4.667z" clip-rule="evenodd"/>
    </mask>
    <g mask="url(#a)">
        <path fill="#F14336" d="M0 0h14v14H0z"/>
    </g>
</svg>
