<svg xmlns="http://www.w3.org/2000/svg" id="prefix__logo" width="30" height="32" viewBox="0 0 30 32">
    <defs>
        <linearGradient id="prefix__linear-gradient" x1=".5" x2="1" y2=".854" gradientUnits="objectBoundingBox">
            <stop offset="0" stop-color="#fff"/>
            <stop offset="1" stop-color="#fff"/>
        </linearGradient>
        <style>
            .prefix__cls-1{fill:url(#prefix__linear-gradient)}
        </style>
    </defs>
    <g id="prefix__Group_3" data-name="Group 3">
        <path id="prefix__Path_5" d="M1669.143 1516.769l-6.929 13.76a.734.734 0 0 0 .693 1.047h13.637a.734.734 0 0 0 .7-1.04l-6.708-13.759a.785.785 0 0 0-1.393-.008z" class="prefix__cls-1" data-name="Path 5" transform="translate(-1655.538 -1516.354)"/>
        <path id="prefix__Path_6" d="M1588.782 1744.152l11.456-.029a.727.727 0 0 1 .383 1.367l-15.778 8.6a.752.752 0 0 1-1.074-.952l4.322-8.574a.773.773 0 0 1 .691-.412z" class="prefix__cls-1" data-name="Path 6" transform="translate(-1583.69 -1725.869)"/>
        <path id="prefix__Path_7" d="M1640.107 1760.4l5.368 11.011a.735.735 0 0 1-.7 1.04l-25.536-.033a.727.727 0 0 1-.38-1.367l20.169-10.979a.786.786 0 0 1 1.079.328z" class="prefix__cls-1" data-name="Path 7" transform="translate(-1615.547 -1740.455)"/>
    </g>
</svg>
