<svg xmlns="http://www.w3.org/2000/svg" width="16" height="16" fill="none" viewBox="0 0 18 18">
    <path fill="#4F2DA7" fill-rule="evenodd" d="M3 2.25h12a2.255 2.255 0 0 1 2.25 2.259V13.5c0 1.24-1.01 2.25-2.25 2.25H3c-1.24 0-2.25-1.01-2.25-2.25V4.51m1.58-.345L9 8.835l6.67-4.67A.755.755 0 0 0 15 3.75H3a.755.755 0 0 0-.67.415zM3 2.25A2.254 2.254 0 0 0 .75 4.486L3 2.25zm-.75 3.69v7.56c0 .41.34.75.75.75h12c.41 0 .75-.34.75-.75V5.94l-6.32 4.424a.75.75 0 0 1-.86 0L2.25 5.94z" clip-rule="evenodd"/>
    <mask id="a" width="18" height="14" x="0" y="2" maskUnits="userSpaceOnUse">
        <path fill="#fff" fill-rule="evenodd" d="M3 2.25h12a2.255 2.255 0 0 1 2.25 2.259V13.5c0 1.24-1.01 2.25-2.25 2.25H3c-1.24 0-2.25-1.01-2.25-2.25V4.51m1.58-.345L9 8.835l6.67-4.67A.755.755 0 0 0 15 3.75H3a.755.755 0 0 0-.67.415zM3 2.25A2.254 2.254 0 0 0 .75 4.486L3 2.25zm-.75 3.69v7.56c0 .41.34.75.75.75h12c.41 0 .75-.34.75-.75V5.94l-6.32 4.424a.75.75 0 0 1-.86 0L2.25 5.94z" clip-rule="evenodd"/>
    </mask>
    <g mask="url(#a)">
        <path fill="#F14336" d="M0 0h18v18H0z"/>
    </g>
</svg>
