<svg xmlns="http://www.w3.org/2000/svg" width="16" height="16" fill="none" viewBox="0 0 16 16">
    <path fill="#4F2DA7" fill-rule="evenodd" d="M2.667 2h10.666a2.004 2.004 0 0 1 2 2.009V12c0 1.101-.898 2-2 2H2.667c-1.102 0-2-.899-2-2V4.007m2-2.007a2.004 2.004 0 0 0-2 1.99l2-1.99zM2 5.28V12a.67.67 0 0 0 .667.667h10.666A.67.67 0 0 0 14 12V5.28L8.382 9.213a.667.667 0 0 1-.764 0L2 5.28zm.667-1.947a.67.67 0 0 0-.596.37L8 7.853l5.929-4.15a.67.67 0 0 0-.596-.37H2.667z" clip-rule="evenodd"/>
    <mask id="a" width="16" height="12" x="0" y="2" maskUnits="userSpaceOnUse">
        <path fill="#fff" fill-rule="evenodd" d="M2.667 2h10.666a2.004 2.004 0 0 1 2 2.009V12c0 1.101-.898 2-2 2H2.667c-1.102 0-2-.899-2-2V4.007m2-2.007a2.004 2.004 0 0 0-2 1.99l2-1.99zM2 5.28V12a.67.67 0 0 0 .667.667h10.666A.67.67 0 0 0 14 12V5.28L8.382 9.213a.667.667 0 0 1-.764 0L2 5.28zm.667-1.947a.67.67 0 0 0-.596.37L8 7.853l5.929-4.15a.67.67 0 0 0-.596-.37H2.667z" clip-rule="evenodd"/>
    </mask>
    <g mask="url(#a)">
        <path fill="#4F2DA7" d="M0 0h16v16H0z"/>
    </g>
</svg>
