<svg xmlns="http://www.w3.org/2000/svg" width="15" height="13" fill="none" viewBox="0 0 15 13">
    <path fill="#fff" d="M.133 6.48c.018.304.22.56.51.646l5.4 1.633.198 3.72a.369.369 0 0 0 .37.346.365.365 0 0 0 .276-.123l1.909-2.113 2.705 1.873a.71.71 0 0 0 .409.129c.34 0 .634-.24.706-.577L14.86.57a.368.368 0 0 0-.499-.412L.566 5.774a.725.725 0 0 0-.433.706zm6.793 5.077l-.123-2.348 1.382.956-1.26 1.392zm4.972.285L6.974 8.434l6.904-6.679-1.98 10.087zM13.12 1.46L6.295 8.064.902 6.435l12.219-4.974z"/>
    <path fill="#fff" d="M.644 7.126L.682 7l-.038.126zM6.042 8.76l.132-.007-.005-.093-.089-.026-.038.126zm.199 3.72l-.132.008.132-.007zm.25.325l.046-.123-.004-.001-.043.124zm.396-.102l-.098-.088.098.088zm1.909-2.113l.074-.108-.095-.066-.077.086.098.088zm2.705 1.873l.075-.108-.075.108zm1.115-.448l.129.027v-.002l-.13-.025zM14.86.57l-.129-.027v.001l.13.026zm-.126-.355l-.084.101.084-.1zM14.362.16l-.05-.122.05.122zM.566 5.774l-.05-.122-.004.002.054.12zm6.36 5.783l-.131.007.016.316.213-.235-.098-.088zm-.123-2.348l.075-.108-.22-.152.013.267.132-.007zm1.382.956l.098.089.1-.112-.123-.085-.075.108zm3.713 1.678l-.075.108.165.114.039-.197-.13-.026zm-4.924-3.41l-.091-.094-.116.112.132.091.075-.108zm6.904-6.678l.13.025.08-.411-.301.292.091.094zm-.757-.294l.091.094-.14-.216.049.121zM6.295 8.063l-.038.126.074.023.055-.054-.091-.095zM.902 6.435l-.05-.122-.344.14.356.108.038-.126zm-.9.053c.02.358.26.661.604.764L.682 7a.582.582 0 0 1-.418-.528l-.262.016zm.604.764l5.398 1.632.076-.251L.682 7l-.076.252zM5.91 8.766l.198 3.72.263-.013-.198-3.721-.263.014zm.198 3.722a.5.5 0 0 0 .339.44l.085-.248a.237.237 0 0 1-.161-.208l-.263.016zm.334.44c.057.021.116.029.167.029v-.263a.207.207 0 0 1-.073-.013l-.094.246zm.167.029a.497.497 0 0 0 .375-.167l-.196-.175a.234.234 0 0 1-.179.079v.263zm.375-.167l1.908-2.113-.195-.176-1.909 2.113.196.176zm1.736-2.093l2.705 1.873.15-.216L8.87 10.48l-.15.216zm2.704 1.873c.142.099.31.152.484.152v-.263a.578.578 0 0 1-.333-.105l-.15.216zm.484.152c.403 0 .75-.284.836-.68l-.258-.056a.594.594 0 0 1-.578.473v.264zm.836-.683L14.99.596l-.258-.05-2.245 11.442.258.051zM14.99.597a.5.5 0 0 0-.171-.482l-.168.203a.237.237 0 0 1 .081.226l.258.053zM14.82.115a.497.497 0 0 0-.506-.078l.099.244a.233.233 0 0 1 .239.036l.168-.202zm-.506-.078L.516 5.652l.1.244L14.411.28l-.1-.244zM.512 5.654a.857.857 0 0 0-.51.834l.262-.016a.594.594 0 0 1 .356-.578l-.108-.24zm6.545 5.896l-.123-2.347-.263.013.124 2.348.262-.014zm-.33-2.232l1.384.956.15-.217-1.383-.956-.15.217zm1.36.759l-1.259 1.392.196.176 1.259-1.391-.195-.177zm3.885 1.657L7.05 8.326l-.15.216 4.924 3.409.15-.217zM7.066 8.528L13.97 1.85l-.183-.19-6.904 6.68.183.188zm6.683-6.798l-1.98 10.087.258.05 1.98-10.087-.258-.05zm-.72-.364L6.203 7.97l.183.189 6.826-6.604-.183-.19zM6.333 7.938L.94 6.31l-.076.252 5.393 1.63.076-.253zM.952 6.557l12.219-4.975-.1-.243L.853 6.313l.099.244z"/>
</svg>
