<svg xmlns="http://www.w3.org/2000/svg" width="14" height="14" fill="none" viewBox="0 0 14 14">
    <path fill="#4F2DA7" d="M11.064 8.672c-.286-.298-.632-.457-.998-.457-.364 0-.712.156-1.01.455l-.935.93c-.076-.041-.153-.08-.227-.118-.106-.053-.207-.103-.293-.156-.874-.556-1.67-1.28-2.431-2.217-.37-.466-.618-.86-.798-1.258.242-.222.467-.452.685-.674l.249-.251c.62-.62.62-1.424 0-2.045l-.807-.807a12.288 12.288 0 0 1-.275-.28 13.94 13.94 0 0 0-.555-.55C3.382.96 3.039.81 2.679.81s-.71.15-1.005.434l-.006.006L.664 2.264c-.379.378-.594.839-.642 1.374-.07.862.184 1.666.379 2.192.478 1.291 1.193 2.488 2.26 3.77a13.904 13.904 0 0 0 4.63 3.626c.68.322 1.587.703 2.6.768.062.003.127.006.187.006.682 0 1.255-.245 1.704-.733.003-.006.01-.009.012-.015.154-.186.331-.354.517-.534.127-.121.257-.249.384-.382.293-.304.447-.659.447-1.022 0-.366-.157-.718-.455-1.013l-1.623-1.629zm1.058 3.112c-.003 0-.003.003 0 0-.115.124-.233.236-.36.36a7.78 7.78 0 0 0-.57.591c-.299.32-.65.47-1.111.47-.045 0-.092 0-.136-.003-.878-.056-1.694-.399-2.305-.691a13.125 13.125 0 0 1-4.361-3.416C2.27 7.881 1.597 6.758 1.15 5.552c-.275-.736-.375-1.309-.33-1.85.029-.345.162-.632.407-.877l1.007-1.008c.145-.136.299-.21.45-.21.186 0 .336.113.431.207l.009.01c.18.168.351.342.532.528.091.095.186.19.28.287l.807.806c.313.314.313.603 0 .916-.086.086-.168.172-.254.255-.248.254-.485.49-.742.72-.006.006-.011.01-.014.015-.255.254-.207.503-.154.671l.009.027c.21.508.505.987.954 1.557l.003.003c.816 1.004 1.675 1.787 2.624 2.387.121.077.245.14.363.198.107.053.207.104.293.157.012.006.024.015.035.02.1.05.195.074.293.074.245 0 .399-.153.45-.204l1.01-1.01c.1-.1.26-.222.446-.222.183 0 .334.116.425.216a.365.365 0 0 0 .006.006l1.628 1.628c.305.301.305.612.003.925zM7.566 3.33c.774.13 1.477.497 2.039 1.058a3.767 3.767 0 0 1 1.058 2.039c.032.195.2.33.393.33a.4.4 0 0 0 .396-.467 4.558 4.558 0 0 0-1.28-2.466 4.558 4.558 0 0 0-2.467-1.28.401.401 0 0 0-.461.325.395.395 0 0 0 .322.461zM13.984 6.176a7.497 7.497 0 0 0-2.107-4.063A7.498 7.498 0 0 0 7.814.006a.397.397 0 1 0-.13.786 6.714 6.714 0 0 1 3.632 1.882 6.695 6.695 0 0 1 1.882 3.632c.032.195.2.33.393.33a.391.391 0 0 0 .393-.461z"/>
</svg>
