<svg xmlns="http://www.w3.org/2000/svg" width="13" height="12" fill="none" viewBox="0 0 13 12">
    <path fill="#fff" d="M6.5 8.433a.679.679 0 0 0-.668.674c0 .367.304.675.668.675.35 0 .668-.308.652-.659a.656.656 0 0 0-.652-.69z"/>
    <path fill="#fff" d="M12.684 10.823c.42-.73.422-1.602.005-2.331L8.504 1.174A2.27 2.27 0 0 0 6.503 0C5.663 0 4.915.44 4.5 1.171L.31 8.497a2.342 2.342 0 0 0 .008 2.345A2.283 2.283 0 0 0 2.315 12h8.359c.837 0 1.587-.44 2.01-1.177zm-.909-.528a1.26 1.26 0 0 1-1.104.645H2.312c-.454 0-.863-.235-1.09-.632a1.288 1.288 0 0 1-.003-1.287l4.19-7.324c.228-.402.634-.64 1.094-.64.456 0 .865.241 1.093.643l4.187 7.324a1.27 1.27 0 0 1-.008 1.27z"/>
    <path fill="#fff" d="M6.334 3.697c-.318.092-.516.383-.516.737l.046.642L6 7.496a.492.492 0 0 0 .5.475.502.502 0 0 0 .5-.49c0-.168 0-.322.016-.492l.09-1.562c.017-.338.046-.675.062-1.012a.84.84 0 0 0-.062-.338.668.668 0 0 0-.772-.38z"/>
</svg>
